# xmcd
#
# Track frame offsets:
#	150
#	17434
#	34842
#	50151
#	62226
#	84208
#	103347
#	122015
#	136306
#	151015
#
# Disc length: 2241 seconds
#
# Revision: 1
# Processed by: cddbd v1.5.2PL0 Copyright (c) Steve Scherf et al.
# Submitted via: EZCDAudioConverter 6.0.8.1
#
DISCID=7c08bf0a
DTITLE=呂方 - 聽不到的說話
DYEAR=2011
DGENRE=Pop/Rock
TTITLE0=聽不到的說話
TTITLE1=愛情沒有錯(國)
TTITLE2=甜蜜十六歲
TTITLE3=執法者
TTITLE4=今夜狂舞高歌
TTITLE5=從未如此深愛過
TTITLE6=清風是你(vs.羅明珠)
TTITLE7=普通人
TTITLE8=酒不醉人自醉
TTITLE9=妳令我快樂過
EXTD=
EXTT0=
EXTT1=
EXTT2=
EXTT3=
EXTT4=
EXTT5=
EXTT6=
EXTT7=
EXTT8=
EXTT9=
PLAYORDER=
